<svg version="1.1" id="Layer_1" xmlns="http://www.w3.org/2000/svg" xmlns:xlink="http://www.w3.org/1999/xlink" x="0px" y="0px"
	 width="100%" viewBox="0 0 256 256" enable-background="new 0 0 256 256" xml:space="preserve">
<path fill="#FEFFFF" opacity="1.000000" stroke="none" 
	d="
M171.000000,257.000000 
	C114.000000,257.000000 57.500008,257.000000 1.000008,257.000000 
	C1.000005,171.666672 1.000005,86.333351 1.000003,1.000019 
	C86.333321,1.000013 171.666641,1.000013 257.000000,1.000006 
	C257.000000,86.333313 257.000000,171.666626 257.000000,256.999969 
	C228.500000,257.000000 200.000000,257.000000 171.000000,257.000000 
M161.713058,210.097885 
	C162.023819,209.934097 162.177109,209.676575 162.817322,209.080933 
	C165.307053,205.034424 168.680099,201.283768 170.149734,196.895615 
	C184.667969,153.545929 198.930374,110.110062 213.126053,66.653145 
	C217.363525,53.681137 211.388535,41.723347 199.155365,37.818890 
	C187.497192,34.097958 175.533401,40.650578 171.347336,53.248821 
	C161.490326,82.914284 151.780365,112.628654 141.899658,142.286179 
	C137.811661,154.556625 133.438873,166.732193 128.600372,178.524338 
	C125.392479,168.465866 122.288727,158.372742 118.957458,148.355301 
	C108.301964,116.313202 97.598877,84.286804 86.836189,52.280556 
	C82.715790,40.027233 69.763855,33.857941 57.907764,38.310543 
	C45.823986,42.848656 40.843533,55.038132 45.401791,68.830452 
	C58.709694,109.097366 71.914444,149.398682 85.351082,189.622574 
	C90.241615,204.262817 100.077950,214.246826 115.708618,219.219498 
	C122.292755,219.813019 128.992844,221.459244 135.433472,220.749847 
	C144.766464,219.721909 154.043350,217.304901 161.199600,210.200577 
	C161.199600,210.200577 161.245117,210.154984 161.713058,210.097885 
z"/>
<path fill="#06CD9E" opacity="1.000000" stroke="none" 
	d="
M115.013191,218.882919 
	C100.077950,214.246826 90.241615,204.262817 85.351082,189.622574 
	C71.914444,149.398682 58.709694,109.097366 45.401791,68.830452 
	C40.843533,55.038132 45.823986,42.848656 57.907764,38.310543 
	C69.763855,33.857941 82.715790,40.027233 86.836189,52.280556 
	C97.598877,84.286804 108.301964,116.313202 118.957458,148.355301 
	C122.288727,158.372742 125.392479,168.465866 128.829132,179.116516 
	C131.717682,187.476196 134.377457,195.243729 137.037506,203.374802 
	C138.045700,204.813858 139.053650,205.889359 140.041061,206.985687 
	C140.020508,207.006500 140.019455,206.947998 140.114197,207.186462 
	C140.484802,207.616180 140.760681,207.807419 141.015442,208.002151 
	C140.994339,208.005661 141.001099,207.963379 141.110352,208.203613 
	C141.514755,208.623703 141.809937,208.803543 142.380356,209.103241 
	C143.438675,209.811005 144.221725,210.398926 145.130493,211.225769 
	C145.571075,211.626892 145.885971,211.789093 146.502731,211.946396 
	C147.206039,211.970917 147.607483,212.000336 148.245361,212.298615 
	C150.019836,212.818939 151.557877,213.070419 154.248230,213.510300 
	C142.755676,218.448547 132.284988,222.198303 120.569542,218.821564 
	C118.864937,218.330246 116.872459,218.837662 115.013191,218.882919 
z"/>
<path fill="#049068" opacity="1.000000" stroke="none" 
	d="
M137.037247,203.011246 
	C134.377457,195.243729 131.717682,187.476196 129.126740,179.329788 
	C133.438873,166.732193 137.811661,154.556625 141.899658,142.286179 
	C151.780365,112.628654 161.490326,82.914284 171.347336,53.248821 
	C175.533401,40.650578 187.497192,34.097958 199.155365,37.818890 
	C211.388535,41.723347 217.363525,53.681137 213.126053,66.653145 
	C198.930374,110.110062 184.667969,153.545929 170.149734,196.895615 
	C168.680099,201.283768 165.307053,205.034424 162.247635,209.202438 
	C161.329147,209.494110 161.184860,209.771133 161.245117,210.154984 
	C161.245117,210.154984 161.199600,210.200577 160.766144,210.135315 
	C156.224747,210.723282 152.116837,211.376526 148.008911,212.029755 
	C147.607483,212.000336 147.206039,211.970917 146.357712,211.723434 
	C145.608810,211.332535 145.306793,211.159683 145.004791,210.986847 
	C144.221725,210.398926 143.438675,209.811005 142.258728,208.872589 
	C141.574921,208.335861 141.288010,208.149628 141.001099,207.963379 
	C141.001099,207.963379 140.994339,208.005661 140.914764,207.766785 
	C140.563293,207.334610 140.291367,207.141312 140.019455,206.947998 
	C140.019455,206.947998 140.020508,207.006500 139.988922,206.664093 
	C138.983978,205.218201 138.010620,204.114731 137.037247,203.011246 
z"/>
<path fill="#2BC6A1" opacity="1.000000" stroke="none" 
	d="
M148.245361,212.298615 
	C152.116837,211.376526 156.224747,210.723282 160.741974,210.156616 
	C154.043350,217.304901 144.766464,219.721909 135.433472,220.749847 
	C128.992844,221.459244 122.292755,219.813019 115.360901,219.051208 
	C116.872459,218.837662 118.864937,218.330246 120.569542,218.821564 
	C132.284988,222.198303 142.755676,218.448547 154.248230,213.510300 
	C151.557877,213.070419 150.019836,212.818939 148.245361,212.298615 
z"/>
<path fill="#2BC6A1" opacity="1.000000" stroke="none" 
	d="
M161.479095,210.126434 
	C161.184860,209.771133 161.329147,209.494110 161.925446,209.324646 
	C162.177109,209.676575 162.023819,209.934097 161.479095,210.126434 
z"/>
<path fill="#2BC6A1" opacity="1.000000" stroke="none" 
	d="
M137.037506,203.374802 
	C138.010620,204.114731 138.983978,205.218201 140.009491,206.643280 
	C139.053650,205.889359 138.045700,204.813858 137.037506,203.374802 
z"/>
<path fill="#2BC6A1" opacity="1.000000" stroke="none" 
	d="
M140.114197,207.186462 
	C140.291367,207.141312 140.563293,207.334610 140.935883,207.763275 
	C140.760681,207.807419 140.484802,207.616180 140.114197,207.186462 
z"/>
<path fill="#2BC6A1" opacity="1.000000" stroke="none" 
	d="
M141.110352,208.203613 
	C141.288010,208.149628 141.574921,208.335861 141.983475,208.752747 
	C141.809937,208.803543 141.514755,208.623703 141.110352,208.203613 
z"/>
<path fill="#2BC6A1" opacity="1.000000" stroke="none" 
	d="
M145.130493,211.225769 
	C145.306793,211.159683 145.608810,211.332535 146.055832,211.728333 
	C145.885971,211.789093 145.571075,211.626892 145.130493,211.225769 
z"/>
</svg>